<svg id="Layer_1" enable-background="new 0 0 512.001 512.001" height="512" viewBox="0 0 512.001 512.001" width="512" xmlns="http://www.w3.org/2000/svg"><g><path d="m391.458 114.913c-3.964 0-7.941.196-11.895.585-17.338-53.123-66.929-89.497-123.563-89.497-32.434 0-63.498 12.014-87.469 33.827-21.964 19.988-36.323 46.643-40.925 75.702-16.412 4.156-31.282 13.31-42.463 26.264-10.93 12.664-17.728 28.301-19.609 44.799-36.903 4.667-65.534 36.255-65.534 74.406 0 41.355 33.645 75 75 75h51c0 7.384 4.032 13.829 10 17.294v25.414c-5.968 3.464-10 9.91-10 17.293v50.001c0 11.028 8.972 20 20 20h220c11.028 0 20-8.972 20-20v-50.001c0-7.383-4.032-13.828-10-17.293v-25.414c5.968-3.465 10-9.91 10-17.294h5.457c66.468 0 120.543-54.075 120.543-120.543s-54.074-120.543-120.542-120.543zm-245.459 81.084h220.001v50h-220zm10.001 200.004v-20.002h200v20.002zm-10-40.002-.002-50h.002l219.981-.001c.006 0 .013.001.019.001v50zm210.001-90.002v20.002h-200.001v-20.002zm-210.001 200.004-.002-50h.002l219.982-.001c.006 0 .013.001.019.001v50zm245.458-130.002h-5.457v-30.001c0-7.383-4.032-13.828-10-17.293v-25.414c5.968-3.465 10-9.91 10-17.294v-50c0-11.028-8.972-20-20-20h-220.001c-11.028 0-20 8.972-20 20v50c0 7.384 4.032 13.829 10 17.294v25.414c-5.968 3.464-10 9.91-10 17.293v30.001h-51c-30.328 0-55-24.673-55-55s24.673-55.001 55-55.001c5.523 0 10-4.478 10-10 0-31.232 22.355-57.405 53.155-62.234 4.495-.704 7.947-4.354 8.401-8.881 5.653-56.373 52.704-98.882 109.444-98.882 50.473 0 94.333 34.134 106.66 83.007 1.28 5.075 6.254 8.305 11.413 7.406 5.717-.996 11.566-1.501 17.385-1.501 55.44 0 100.543 45.104 100.543 100.543s-45.103 100.543-100.543 100.543z"/><path d="m336.006 431.001h-.007c-5.523 0-9.997 4.478-9.997 10s4.481 10 10.004 10 10-4.478 10-10-4.477-10-10-10z"/><path d="m296.005 431.001h-.007c-5.523 0-9.997 4.478-9.997 10s4.481 10 10.004 10 10-4.478 10-10-4.477-10-10-10z"/><path d="m336.006 320.999h-.007c-5.523 0-9.997 4.478-9.997 10s4.481 10 10.004 10 10-4.478 10-10-4.477-10-10-10z"/><path d="m296.005 320.999h-.007c-5.523 0-9.997 4.478-9.997 10s4.481 10 10.004 10 10-4.478 10-10-4.477-10-10-10z"/><path d="m336.006 210.997h-.007c-5.523 0-9.997 4.478-9.997 10s4.481 10 10.004 10 10-4.478 10-10-4.477-10-10-10z"/><path d="m296.005 210.997h-.007c-5.523 0-9.997 4.478-9.997 10s4.481 10 10.004 10 10-4.478 10-10-4.477-10-10-10z"/></g></svg>